<svg height="512pt" viewBox="0 0 512.00056 512" width="512pt" xmlns="http://www.w3.org/2000/svg"><path d="m511.996094 491.992188c0 11.046874-8.953125 20-20 20h-471.992188c-11.042968 0-19.99999975-8.953126-19.99999975-20 0-11.046876 8.95703175-20 19.99999975-20h471.992188c11.046875 0 20 8.953124 20 20zm-491.976563-331.992188c3.039063 0 6.125-.691406 9.019531-2.160156l227.925782-115.402344 225.9375 115.371094c9.84375 5.027344 21.886718 1.121094 26.90625-8.714844 5.023437-9.835938 1.121094-21.882812-8.714844-26.90625l-234.996094-120c-5.691406-2.90625-12.429687-2.917969-18.132812-.03125l-236.996094 120c-9.851562 4.988281-13.796875 17.023438-8.808594 26.875 3.527344 6.960938 10.558594 10.96875 17.859375 10.96875zm261.980469 131.996094h-31c-11.042969 0-20 8.953125-20 20s8.957031 20 20 20h31c55.140625 0 100-44.859375 100-100s-44.859375-99.996094-100-99.996094h-110.996094c-11.046875 0-20 8.953125-20 19.996094 0 1.023437.101563 2.019531.246094 3-.144531.984375-.246094 1.980468-.246094 3v253.996094c0 11.046874 8.953125 20 20 20 11.042969 0 20-8.953126 20-20v-239.996094h90.996094c33.085938 0 60 26.917968 60 60 0 33.082031-26.914062 60-60 60zm0 0"/></svg>